REM MD5 4c4217a0fe803df5777dd15150c21efc
FILE "AI Shougi 2 (Japan).bin" BINARY
  TRACK 01 MODE2/2352
    INDEX 01 00:00:00
  TRACK 02 AUDIO
    INDEX 00 01:26:44
    INDEX 01 01:28:44
  TRACK 03 AUDIO
    INDEX 00 03:26:18
    INDEX 01 03:28:18
REM LEADOUT 09:43:12
